# xmcd
#
# Track frame offsets: 
#        150
#        18444
#        44155
#        96980
#        120309
#        154339
#        177047
#        192983
#        225131
#        245417
#        268187
#
# Disc length: 4071 seconds
#
# Revision: 0
# Processed by: cddbd v1.5.2PL0 Copyright (c) Steve Scherf et al.
# Submitted via: ExactAudioCopy v0.95b3
#
DISCID=8c0fe50b
DTITLE=Jimi Hendrix  - Rockin' The USA Vol.1- Disc 2
DYEAR=1900
DGENRE=
TTITLE0=Killing Floor
TTITLE1=Red House
TTITLE2=Catfish Blues
TTITLE3=Dear Mr Fantasy 1
TTITLE4=Dear Mr Fantasy 2
TTITLE5=Purple Haze
TTITLE6=Fire
TTITLE7=Red House
TTITLE8=Foxy Lady
TTITLE9=Purple Haze
TTITLE10=Wild Thing
EXTD=
EXTT0=
EXTT1=
EXTT2=
EXTT3=
EXTT4=
EXTT5=
EXTT6=
EXTT7=
EXTT8=
EXTT9=
EXTT10=
PLAYORDER=
